<svg width="110" height="110" xmlns="http://www.w3.org/2000/svg">
 <g>
  <title>Layer 1</title>
  <g id="svg_1">
   <path class="cls-2" d="m63.07001,31.48l-0.65,0.02l10.93,17.93c2.16,3.56 2.25,7.99 0.25,11.64l-10.15,18.35l19.08,-0.04c17.29,-0.04 27.99,-18.85 19.18,-33.73l-8.38,-14.17l-30.26,0z" fill="#02ffb9" id="svg_2"/>
   <path class="cls-2" d="m14.43001,15.39l-8.43,14.99l15.52,25.92l9.94,-18.55c2.02,-3.77 5.94,-6.13 10.21,-6.15l20.76,-0.12l-9.05,-16.09c-4.27,-7.59 -11.87,-11.39 -19.48,-11.39s-15.2,3.79 -19.48,11.39" fill="#02ffb9" id="svg_3"/>
   <path class="cls-2" d="m12.00001,72.83c-8.63,14.98 2.3,33.67 19.59,33.5l16.95,-0.17c0.27,0 0.51,-0.15 0.64,-0.39l14.33,-26.36l-20.99,0.47c-4.16,0.09 -8.05,-2.05 -10.19,-5.61l-10.82,-17.98l-9.52,16.53l0.01,0.01z" fill="#02ffb9" id="svg_4"/>
  </g>
 </g>

</svg>